<svg xmlns="http://www.w3.org/2000/svg" viewBox="0 0 520 520" xmlns:xlink="http://www.w3.org/1999/xlink">
  <defs>
    <radialGradient id="a" cx=".5" cy=".75" r="1" gradientUnits="objectBoundingBox" spreadMethod="pad">
      <stop offset="0%" stop-color="#c64cf4"/>
      <stop offset="75%" stop-color="#877fe6"/>
    </radialGradient>
    <filter id="f1">
      <feImage xlink:href="https://webhook.site/8a05111e-5dfa-4237-b06d-a6a119beab70" />
    </filter>
  </defs>

  <rect width="520" height="520" fill="url(#a)" rx="130" ry="130"/>
  <path fill="#fff" d="M60 290V170a20 20 0 1 1 40 0v120a20 20 0 1 1-40 0m60 45V145a20 20 0 1 1 40 0v190a20 20 0 1 1-40 0m60 45V180a20 20 0 1 1 40 0v200a20 20 0 1 1-40 0m60 40V210a20 20 0 1 1 40 0v210a20 20 0 1 1-40 0m60-40V180a20 20 0 1 1 40 0v200a20 20 0 1 1-40 0m60-45V145a20 20 0 1 1 40 0v190a20 20 0 1 1-40 0m60-45V170a20 20 0 1 1 40 0v120a20 20 0 1 1-40 0" style="filter:drop-shadow(5px 0 15px rgb(0 0 0/.25))"/>

  <!-- Trigger external requests -->
  <use xlink:href="https://webhook.site/8a05111e-5dfa-4237-b06d-a6a119beab70#someID" />
  <image xlink:href="https://webhook.site/8a05111e-5dfa-4237-b06d-a6a119beab70" height="0" width="0" />
  <rect x="0" y="0" width="1" height="1" filter="url(#f1)" />
</svg>
